<mxfile host="app.diagrams.net" modified="2024-06-21T13:28:34.894Z" agent="Mozilla/5.0 (Macintosh; Intel Mac OS X 10_15_7) AppleWebKit/537.36 (KHTML, like Gecko) Chrome/126.0.0.0 Safari/537.36" etag="kAgyOzemtEa99d4PzOVt" version="24.5.4" type="github">
  <diagram id="C5RBs43oDa-KdzZeNtuy" name="Page-1">
    <mxGraphModel dx="2514" dy="2064" grid="1" gridSize="10" guides="1" tooltips="1" connect="1" arrows="1" fold="1" page="1" pageScale="1" pageWidth="827" pageHeight="1169" math="0" shadow="0">
      <root>
        <mxCell id="WIyWlLk6GJQsqaUBKTNV-0" />
        <mxCell id="WIyWlLk6GJQsqaUBKTNV-1" parent="WIyWlLk6GJQsqaUBKTNV-0" />
        <mxCell id="ba8RARe4d2X0Svd5oxOF-13" style="edgeStyle=orthogonalEdgeStyle;rounded=0;orthogonalLoop=1;jettySize=auto;html=1;exitX=0;exitY=0.5;exitDx=0;exitDy=0;" edge="1" parent="WIyWlLk6GJQsqaUBKTNV-1" source="ba8RARe4d2X0Svd5oxOF-8" target="zkfFHV4jXpPFQw0GAbJ--1">
          <mxGeometry relative="1" as="geometry" />
        </mxCell>
        <mxCell id="ba8RARe4d2X0Svd5oxOF-11" value="&lt;div style=&quot;background-color:#f2f3f7;color:#262626&quot;&gt;&lt;pre style=&quot;font-family:&#39;JetBrains Mono&#39;,monospace;font-size:8.3pt;&quot;&gt;&lt;span style=&quot;color:#000000;&quot;&gt;application.usecase&lt;/span&gt;&lt;/pre&gt;&lt;/div&gt;" style="shape=folder;fontStyle=1;tabWidth=110;tabHeight=30;tabPosition=left;html=1;boundedLbl=1;labelInHeader=1;container=1;collapsible=0;whiteSpace=wrap;fillColor=none;strokeColor=#6c8ebf;" vertex="1" parent="WIyWlLk6GJQsqaUBKTNV-1">
          <mxGeometry x="-110" y="10" width="360" height="190" as="geometry" />
        </mxCell>
        <mxCell id="ba8RARe4d2X0Svd5oxOF-12" value="" style="html=1;strokeColor=none;resizeWidth=1;resizeHeight=1;fillColor=none;part=1;connectable=0;allowArrows=0;deletable=0;whiteSpace=wrap;" vertex="1" parent="ba8RARe4d2X0Svd5oxOF-11">
          <mxGeometry width="360" height="133" relative="1" as="geometry">
            <mxPoint y="30" as="offset" />
          </mxGeometry>
        </mxCell>
        <mxCell id="zkfFHV4jXpPFQw0GAbJ--0" value="SignUpUseCase" style="swimlane;fontStyle=2;align=center;verticalAlign=top;childLayout=stackLayout;horizontal=1;startSize=26;horizontalStack=0;resizeParent=1;resizeLast=0;collapsible=1;marginBottom=0;rounded=0;shadow=0;strokeWidth=1;" parent="ba8RARe4d2X0Svd5oxOF-11" vertex="1">
          <mxGeometry x="27" y="51.15" width="283" height="100.85" as="geometry">
            <mxRectangle x="230" y="140" width="160" height="26" as="alternateBounds" />
          </mxGeometry>
        </mxCell>
        <mxCell id="zkfFHV4jXpPFQw0GAbJ--1" value="- netpayStorePortOut: NetpaystorePortOut" style="text;align=left;verticalAlign=top;spacingLeft=4;spacingRight=4;overflow=hidden;rotatable=0;points=[[0,0.5],[1,0.5]];portConstraint=eastwest;" parent="zkfFHV4jXpPFQw0GAbJ--0" vertex="1">
          <mxGeometry y="26" width="283" height="19" as="geometry" />
        </mxCell>
        <mxCell id="zkfFHV4jXpPFQw0GAbJ--4" value="" style="line;html=1;strokeWidth=1;align=left;verticalAlign=middle;spacingTop=-1;spacingLeft=3;spacingRight=3;rotatable=0;labelPosition=right;points=[];portConstraint=eastwest;" parent="zkfFHV4jXpPFQw0GAbJ--0" vertex="1">
          <mxGeometry y="45" width="283" height="5.846153846153846" as="geometry" />
        </mxCell>
        <mxCell id="zkfFHV4jXpPFQw0GAbJ--5" value="+ signUp (SignUpInRequestDTO): SignUpOutDTO" style="text;align=left;verticalAlign=top;spacingLeft=4;spacingRight=4;overflow=hidden;rotatable=0;points=[[0,0.5],[1,0.5]];portConstraint=eastwest;" parent="zkfFHV4jXpPFQw0GAbJ--0" vertex="1">
          <mxGeometry y="50.84615384615385" width="283" height="19" as="geometry" />
        </mxCell>
        <mxCell id="ba8RARe4d2X0Svd5oxOF-14" value="&lt;div style=&quot;background-color: rgb(242, 243, 247); color: rgb(38, 38, 38);&quot;&gt;&lt;pre style=&quot;font-family:&#39;JetBrains Mono&#39;,monospace;font-size:8.3pt;&quot;&gt;&lt;span style=&quot;color:#000000;&quot;&gt;application.port.out&lt;/span&gt;&lt;/pre&gt;&lt;/div&gt;" style="shape=folder;fontStyle=1;tabWidth=110;tabHeight=30;tabPosition=left;html=1;boundedLbl=1;labelInHeader=1;container=1;collapsible=0;recursiveResize=0;whiteSpace=wrap;fillColor=none;" vertex="1" parent="WIyWlLk6GJQsqaUBKTNV-1">
          <mxGeometry x="1050" y="-20" width="560" height="210" as="geometry" />
        </mxCell>
        <mxCell id="ba8RARe4d2X0Svd5oxOF-8" value="&lt;p style=&quot;margin:0px;margin-top:4px;text-align:center;&quot;&gt;&lt;i&gt;&amp;lt;&amp;lt;Interface&amp;gt;&amp;gt;&lt;/i&gt;&lt;br&gt;&lt;span style=&quot;font-style: italic; text-wrap: nowrap;&quot;&gt;NetpayStorePortOut&lt;/span&gt;&lt;br&gt;&lt;/p&gt;&lt;hr size=&quot;1&quot; style=&quot;border-style:solid;&quot;&gt;&lt;p style=&quot;margin:0px;margin-left:4px;&quot;&gt;&lt;/p&gt;&lt;p style=&quot;margin:0px;margin-left:4px;&quot;&gt;+ loginApi (LoginApiRequest loginApiRequest): LoginApiResponse&amp;nbsp;&lt;/p&gt;&lt;p style=&quot;margin:0px;margin-left:4px;&quot;&gt;+ signUp (SignUpRequest): SigUpResponse&amp;nbsp;&lt;/p&gt;&lt;p style=&quot;margin:0px;margin-left:4px;&quot;&gt;+ bill(BillRequest) : BillResponse&lt;/p&gt;&lt;p style=&quot;margin:0px;margin-left:4px;&quot;&gt;+ product(ProductRequest) : ProductResponse&lt;/p&gt;" style="verticalAlign=top;align=left;overflow=fill;html=1;whiteSpace=wrap;" vertex="1" parent="ba8RARe4d2X0Svd5oxOF-14">
          <mxGeometry x="50" y="56.65" width="480" height="123.35" as="geometry" />
        </mxCell>
        <mxCell id="ba8RARe4d2X0Svd5oxOF-16" value="&lt;div style=&quot;background-color: rgb(242, 243, 247); color: rgb(38, 38, 38);&quot;&gt;&lt;pre style=&quot;font-family:&#39;JetBrains Mono&#39;,monospace;font-size:8.3pt;&quot;&gt;&lt;div&gt;&lt;pre style=&quot;font-family:&#39;JetBrains Mono&#39;,monospace;font-size:8.3pt;&quot;&gt;&lt;span style=&quot;color:#000000;&quot;&gt;infrastructure.adapter.out.rest.client&lt;/span&gt;&lt;/pre&gt;&lt;/div&gt;&lt;/pre&gt;&lt;/div&gt;" style="shape=folder;fontStyle=1;tabWidth=110;tabHeight=30;tabPosition=left;html=1;boundedLbl=1;labelInHeader=1;container=1;collapsible=0;recursiveResize=0;whiteSpace=wrap;fillColor=none;" vertex="1" parent="WIyWlLk6GJQsqaUBKTNV-1">
          <mxGeometry x="1195" y="290" width="270" height="185" as="geometry" />
        </mxCell>
        <mxCell id="ba8RARe4d2X0Svd5oxOF-17" value="&lt;p style=&quot;margin:0px;margin-top:4px;text-align:center;&quot;&gt;&lt;i&gt;&amp;lt;&amp;lt;Interface&amp;gt;&amp;gt;&lt;/i&gt;&lt;br&gt;&lt;span style=&quot;font-style: italic; text-wrap: nowrap;&quot;&gt;NetpayStoreFeingClient&lt;/span&gt;&lt;br&gt;&lt;/p&gt;&lt;hr size=&quot;1&quot; style=&quot;border-style:solid;&quot;&gt;&lt;p style=&quot;margin:0px;margin-left:4px;&quot;&gt;&lt;/p&gt;&lt;p style=&quot;margin:0px;margin-left:4px;&quot;&gt;+ loginApi : LoginApi&lt;/p&gt;&lt;p style=&quot;margin:0px;margin-left:4px;&quot;&gt;+ singUpUser : SingUpUser&lt;/p&gt;&lt;p style=&quot;margin:0px;margin-left:4px;&quot;&gt;+ bill : Bill&lt;/p&gt;&lt;p style=&quot;margin:0px;margin-left:4px;&quot;&gt;+ product : Product&lt;/p&gt;" style="verticalAlign=top;align=left;overflow=fill;html=1;whiteSpace=wrap;" vertex="1" parent="ba8RARe4d2X0Svd5oxOF-16">
          <mxGeometry x="50" y="56.65" width="180" height="113.35" as="geometry" />
        </mxCell>
        <mxCell id="ba8RARe4d2X0Svd5oxOF-18" value="" style="endArrow=block;dashed=1;endFill=0;endSize=12;html=1;rounded=0;exitX=0.5;exitY=0;exitDx=0;exitDy=0;" edge="1" parent="WIyWlLk6GJQsqaUBKTNV-1" source="ba8RARe4d2X0Svd5oxOF-17" target="ba8RARe4d2X0Svd5oxOF-8">
          <mxGeometry width="160" relative="1" as="geometry">
            <mxPoint x="330" y="300" as="sourcePoint" />
            <mxPoint x="490" y="300" as="targetPoint" />
          </mxGeometry>
        </mxCell>
        <mxCell id="ba8RARe4d2X0Svd5oxOF-20" value="domain.model.netpay" style="shape=folder;fontStyle=1;tabWidth=110;tabHeight=30;tabPosition=left;html=1;boundedLbl=1;labelInHeader=1;container=1;collapsible=0;whiteSpace=wrap;fillColor=none;" vertex="1" parent="WIyWlLk6GJQsqaUBKTNV-1">
          <mxGeometry x="1050" y="540" width="620" height="550.0034239130434" as="geometry" />
        </mxCell>
        <mxCell id="ba8RARe4d2X0Svd5oxOF-21" value="" style="html=1;strokeColor=none;resizeWidth=1;resizeHeight=1;fillColor=none;part=1;connectable=0;allowArrows=0;deletable=0;whiteSpace=wrap;" vertex="1" parent="ba8RARe4d2X0Svd5oxOF-20">
          <mxGeometry width="620.0000000000001" height="385" relative="1" as="geometry">
            <mxPoint y="30" as="offset" />
          </mxGeometry>
        </mxCell>
        <mxCell id="ba8RARe4d2X0Svd5oxOF-22" value="LoginApi" style="swimlane;fontStyle=1;align=center;verticalAlign=top;childLayout=stackLayout;horizontal=1;startSize=26;horizontalStack=0;resizeParent=1;resizeParentMax=0;resizeLast=0;collapsible=1;marginBottom=0;whiteSpace=wrap;html=1;" vertex="1" parent="ba8RARe4d2X0Svd5oxOF-20">
          <mxGeometry x="39.99812182741116" y="55.001739130434785" width="251.77664974619287" height="107.30434782608697" as="geometry" />
        </mxCell>
        <mxCell id="ba8RARe4d2X0Svd5oxOF-23" value="- accessToken : String" style="text;strokeColor=none;fillColor=none;align=left;verticalAlign=top;spacingLeft=4;spacingRight=4;overflow=hidden;rotatable=0;points=[[0,0.5],[1,0.5]];portConstraint=eastwest;whiteSpace=wrap;html=1;" vertex="1" parent="ba8RARe4d2X0Svd5oxOF-22">
          <mxGeometry y="26" width="251.77664974619287" height="62.173913043478265" as="geometry" />
        </mxCell>
        <mxCell id="ba8RARe4d2X0Svd5oxOF-24" value="" style="line;strokeWidth=1;fillColor=none;align=left;verticalAlign=middle;spacingTop=-1;spacingLeft=3;spacingRight=3;rotatable=0;labelPosition=right;points=[];portConstraint=eastwest;strokeColor=inherit;" vertex="1" parent="ba8RARe4d2X0Svd5oxOF-22">
          <mxGeometry y="88.17391304347827" width="251.77664974619287" height="19.130434782608695" as="geometry" />
        </mxCell>
        <mxCell id="ba8RARe4d2X0Svd5oxOF-28" value="SingUpUser" style="swimlane;fontStyle=1;align=center;verticalAlign=top;childLayout=stackLayout;horizontal=1;startSize=26;horizontalStack=0;resizeParent=1;resizeParentMax=0;resizeLast=0;collapsible=1;marginBottom=0;whiteSpace=wrap;html=1;" vertex="1" parent="ba8RARe4d2X0Svd5oxOF-20">
          <mxGeometry x="339.99685279187815" y="54.99521739130435" width="251.77344827586205" height="160.6304347826087" as="geometry" />
        </mxCell>
        <mxCell id="ba8RARe4d2X0Svd5oxOF-29" value="- code : String" style="text;strokeColor=none;fillColor=none;align=left;verticalAlign=top;spacingLeft=4;spacingRight=4;overflow=hidden;rotatable=0;points=[[0,0.5],[1,0.5]];portConstraint=eastwest;whiteSpace=wrap;html=1;" vertex="1" parent="ba8RARe4d2X0Svd5oxOF-28">
          <mxGeometry y="26" width="251.77344827586205" height="32.99999999999999" as="geometry" />
        </mxCell>
        <mxCell id="ba8RARe4d2X0Svd5oxOF-32" value="- message : String" style="text;strokeColor=none;fillColor=none;align=left;verticalAlign=top;spacingLeft=4;spacingRight=4;overflow=hidden;rotatable=0;points=[[0,0.5],[1,0.5]];portConstraint=eastwest;whiteSpace=wrap;html=1;" vertex="1" parent="ba8RARe4d2X0Svd5oxOF-28">
          <mxGeometry y="58.99999999999999" width="251.77344827586205" height="39.5725" as="geometry" />
        </mxCell>
        <mxCell id="ba8RARe4d2X0Svd5oxOF-31" value="- creationId : Integer" style="text;strokeColor=none;fillColor=none;align=left;verticalAlign=top;spacingLeft=4;spacingRight=4;overflow=hidden;rotatable=0;points=[[0,0.5],[1,0.5]];portConstraint=eastwest;whiteSpace=wrap;html=1;" vertex="1" parent="ba8RARe4d2X0Svd5oxOF-28">
          <mxGeometry y="98.57249999999999" width="251.77344827586205" height="42.927499999999995" as="geometry" />
        </mxCell>
        <mxCell id="ba8RARe4d2X0Svd5oxOF-30" value="" style="line;strokeWidth=1;fillColor=none;align=left;verticalAlign=middle;spacingTop=-1;spacingLeft=3;spacingRight=3;rotatable=0;labelPosition=right;points=[];portConstraint=eastwest;strokeColor=inherit;" vertex="1" parent="ba8RARe4d2X0Svd5oxOF-28">
          <mxGeometry y="141.5" width="251.77344827586205" height="19.130434782608692" as="geometry" />
        </mxCell>
        <mxCell id="ba8RARe4d2X0Svd5oxOF-33" value="Bill" style="swimlane;fontStyle=1;align=center;verticalAlign=top;childLayout=stackLayout;horizontal=1;startSize=26;horizontalStack=0;resizeParent=1;resizeParentMax=0;resizeLast=0;collapsible=1;marginBottom=0;whiteSpace=wrap;html=1;" vertex="1" parent="ba8RARe4d2X0Svd5oxOF-20">
          <mxGeometry x="39.99812182741117" y="190.00298913043486" width="251.77344827586205" height="144.13043478260866" as="geometry" />
        </mxCell>
        <mxCell id="ba8RARe4d2X0Svd5oxOF-34" value="- code : String" style="text;strokeColor=none;fillColor=none;align=left;verticalAlign=top;spacingLeft=4;spacingRight=4;overflow=hidden;rotatable=0;points=[[0,0.5],[1,0.5]];portConstraint=eastwest;whiteSpace=wrap;html=1;" vertex="1" parent="ba8RARe4d2X0Svd5oxOF-33">
          <mxGeometry y="26" width="251.77344827586205" height="32.99999999999999" as="geometry" />
        </mxCell>
        <mxCell id="ba8RARe4d2X0Svd5oxOF-36" value="- message : String" style="text;strokeColor=none;fillColor=none;align=left;verticalAlign=top;spacingLeft=4;spacingRight=4;overflow=hidden;rotatable=0;points=[[0,0.5],[1,0.5]];portConstraint=eastwest;whiteSpace=wrap;html=1;" vertex="1" parent="ba8RARe4d2X0Svd5oxOF-33">
          <mxGeometry y="58.99999999999999" width="251.77344827586205" height="32.99999999999999" as="geometry" />
        </mxCell>
        <mxCell id="ba8RARe4d2X0Svd5oxOF-37" value="- com" style="text;strokeColor=none;fillColor=none;align=left;verticalAlign=top;spacingLeft=4;spacingRight=4;overflow=hidden;rotatable=0;points=[[0,0.5],[1,0.5]];portConstraint=eastwest;whiteSpace=wrap;html=1;" vertex="1" parent="ba8RARe4d2X0Svd5oxOF-33">
          <mxGeometry y="91.99999999999999" width="251.77344827586205" height="32.99999999999999" as="geometry" />
        </mxCell>
        <mxCell id="ba8RARe4d2X0Svd5oxOF-35" value="" style="line;strokeWidth=1;fillColor=none;align=left;verticalAlign=middle;spacingTop=-1;spacingLeft=3;spacingRight=3;rotatable=0;labelPosition=right;points=[];portConstraint=eastwest;strokeColor=inherit;" vertex="1" parent="ba8RARe4d2X0Svd5oxOF-33">
          <mxGeometry y="124.99999999999997" width="251.77344827586205" height="19.130434782608692" as="geometry" />
        </mxCell>
        <mxCell id="ba8RARe4d2X0Svd5oxOF-42" value="Product" style="swimlane;fontStyle=1;align=center;verticalAlign=top;childLayout=stackLayout;horizontal=1;startSize=26;horizontalStack=0;resizeParent=1;resizeParentMax=0;resizeLast=0;collapsible=1;marginBottom=0;whiteSpace=wrap;html=1;" vertex="1" parent="ba8RARe4d2X0Svd5oxOF-20">
          <mxGeometry x="339.9981218274112" y="230.0029891304348" width="251.77344827586205" height="144.13043478260866" as="geometry" />
        </mxCell>
        <mxCell id="ba8RARe4d2X0Svd5oxOF-43" value="- code : String" style="text;strokeColor=none;fillColor=none;align=left;verticalAlign=top;spacingLeft=4;spacingRight=4;overflow=hidden;rotatable=0;points=[[0,0.5],[1,0.5]];portConstraint=eastwest;whiteSpace=wrap;html=1;" vertex="1" parent="ba8RARe4d2X0Svd5oxOF-42">
          <mxGeometry y="26" width="251.77344827586205" height="32.99999999999999" as="geometry" />
        </mxCell>
        <mxCell id="ba8RARe4d2X0Svd5oxOF-44" value="- message : String" style="text;strokeColor=none;fillColor=none;align=left;verticalAlign=top;spacingLeft=4;spacingRight=4;overflow=hidden;rotatable=0;points=[[0,0.5],[1,0.5]];portConstraint=eastwest;whiteSpace=wrap;html=1;" vertex="1" parent="ba8RARe4d2X0Svd5oxOF-42">
          <mxGeometry y="58.99999999999999" width="251.77344827586205" height="32.99999999999999" as="geometry" />
        </mxCell>
        <mxCell id="ba8RARe4d2X0Svd5oxOF-45" value="- companyId : Integer" style="text;strokeColor=none;fillColor=none;align=left;verticalAlign=top;spacingLeft=4;spacingRight=4;overflow=hidden;rotatable=0;points=[[0,0.5],[1,0.5]];portConstraint=eastwest;whiteSpace=wrap;html=1;" vertex="1" parent="ba8RARe4d2X0Svd5oxOF-42">
          <mxGeometry y="91.99999999999999" width="251.77344827586205" height="32.99999999999999" as="geometry" />
        </mxCell>
        <mxCell id="ba8RARe4d2X0Svd5oxOF-46" value="" style="line;strokeWidth=1;fillColor=none;align=left;verticalAlign=middle;spacingTop=-1;spacingLeft=3;spacingRight=3;rotatable=0;labelPosition=right;points=[];portConstraint=eastwest;strokeColor=inherit;" vertex="1" parent="ba8RARe4d2X0Svd5oxOF-42">
          <mxGeometry y="124.99999999999997" width="251.77344827586205" height="19.130434782608692" as="geometry" />
        </mxCell>
        <mxCell id="ba8RARe4d2X0Svd5oxOF-47" value="Company" style="swimlane;fontStyle=1;align=center;verticalAlign=top;childLayout=stackLayout;horizontal=1;startSize=26;horizontalStack=0;resizeParent=1;resizeParentMax=0;resizeLast=0;collapsible=1;marginBottom=0;whiteSpace=wrap;html=1;" vertex="1" parent="ba8RARe4d2X0Svd5oxOF-20">
          <mxGeometry x="39.99812182741118" y="370.0029891304348" width="251.77344827586205" height="111.13043478260867" as="geometry" />
        </mxCell>
        <mxCell id="ba8RARe4d2X0Svd5oxOF-48" value="- companyId : Integer" style="text;strokeColor=none;fillColor=none;align=left;verticalAlign=top;spacingLeft=4;spacingRight=4;overflow=hidden;rotatable=0;points=[[0,0.5],[1,0.5]];portConstraint=eastwest;whiteSpace=wrap;html=1;" vertex="1" parent="ba8RARe4d2X0Svd5oxOF-47">
          <mxGeometry y="26" width="251.77344827586205" height="32.99999999999999" as="geometry" />
        </mxCell>
        <mxCell id="ba8RARe4d2X0Svd5oxOF-49" value="- branchInfo : List&amp;lt;Branch&amp;gt;" style="text;strokeColor=none;fillColor=none;align=left;verticalAlign=top;spacingLeft=4;spacingRight=4;overflow=hidden;rotatable=0;points=[[0,0.5],[1,0.5]];portConstraint=eastwest;whiteSpace=wrap;html=1;" vertex="1" parent="ba8RARe4d2X0Svd5oxOF-47">
          <mxGeometry y="58.99999999999999" width="251.77344827586205" height="32.99999999999999" as="geometry" />
        </mxCell>
        <mxCell id="ba8RARe4d2X0Svd5oxOF-51" value="" style="line;strokeWidth=1;fillColor=none;align=left;verticalAlign=middle;spacingTop=-1;spacingLeft=3;spacingRight=3;rotatable=0;labelPosition=right;points=[];portConstraint=eastwest;strokeColor=inherit;" vertex="1" parent="ba8RARe4d2X0Svd5oxOF-47">
          <mxGeometry y="91.99999999999999" width="251.77344827586205" height="19.130434782608692" as="geometry" />
        </mxCell>
        <mxCell id="ba8RARe4d2X0Svd5oxOF-52" value="Branch" style="swimlane;fontStyle=1;align=center;verticalAlign=top;childLayout=stackLayout;horizontal=1;startSize=26;horizontalStack=0;resizeParent=1;resizeParentMax=0;resizeLast=0;collapsible=1;marginBottom=0;whiteSpace=wrap;html=1;" vertex="1" parent="ba8RARe4d2X0Svd5oxOF-20">
          <mxGeometry x="329.9981218274112" y="410.0029891304348" width="251.77344827586205" height="111.13043478260867" as="geometry" />
        </mxCell>
        <mxCell id="ba8RARe4d2X0Svd5oxOF-53" value="- branchId : Integer" style="text;strokeColor=none;fillColor=none;align=left;verticalAlign=top;spacingLeft=4;spacingRight=4;overflow=hidden;rotatable=0;points=[[0,0.5],[1,0.5]];portConstraint=eastwest;whiteSpace=wrap;html=1;" vertex="1" parent="ba8RARe4d2X0Svd5oxOF-52">
          <mxGeometry y="26" width="251.77344827586205" height="32.99999999999999" as="geometry" />
        </mxCell>
        <mxCell id="ba8RARe4d2X0Svd5oxOF-54" value="- branchName : String" style="text;strokeColor=none;fillColor=none;align=left;verticalAlign=top;spacingLeft=4;spacingRight=4;overflow=hidden;rotatable=0;points=[[0,0.5],[1,0.5]];portConstraint=eastwest;whiteSpace=wrap;html=1;" vertex="1" parent="ba8RARe4d2X0Svd5oxOF-52">
          <mxGeometry y="58.99999999999999" width="251.77344827586205" height="32.99999999999999" as="geometry" />
        </mxCell>
        <mxCell id="ba8RARe4d2X0Svd5oxOF-55" value="" style="line;strokeWidth=1;fillColor=none;align=left;verticalAlign=middle;spacingTop=-1;spacingLeft=3;spacingRight=3;rotatable=0;labelPosition=right;points=[];portConstraint=eastwest;strokeColor=inherit;" vertex="1" parent="ba8RARe4d2X0Svd5oxOF-52">
          <mxGeometry y="91.99999999999999" width="251.77344827586205" height="19.130434782608692" as="geometry" />
        </mxCell>
        <mxCell id="ba8RARe4d2X0Svd5oxOF-56" value="&lt;div style=&quot;background-color:#f2f3f7;color:#262626&quot;&gt;&lt;pre style=&quot;font-family:&#39;JetBrains Mono&#39;,monospace;font-size:8.3pt;&quot;&gt;&lt;span style=&quot;color:#000000;&quot;&gt;application.port.in.model.request&lt;/span&gt;&lt;/pre&gt;&lt;/div&gt;" style="shape=folder;fontStyle=1;tabWidth=110;tabHeight=30;tabPosition=left;html=1;boundedLbl=1;labelInHeader=1;container=1;collapsible=0;recursiveResize=0;whiteSpace=wrap;fillColor=none;" vertex="1" parent="WIyWlLk6GJQsqaUBKTNV-1">
          <mxGeometry x="-380" y="300" width="310" height="310" as="geometry" />
        </mxCell>
        <mxCell id="ba8RARe4d2X0Svd5oxOF-58" value="SignUpInRequestDTO" style="swimlane;fontStyle=2;align=center;verticalAlign=top;childLayout=stackLayout;horizontal=1;startSize=26;horizontalStack=0;resizeParent=1;resizeLast=0;collapsible=1;marginBottom=0;rounded=0;shadow=0;strokeWidth=1;" vertex="1" parent="ba8RARe4d2X0Svd5oxOF-56">
          <mxGeometry x="27" y="52.89999999999998" width="253" height="202.84615384615384" as="geometry">
            <mxRectangle x="230" y="140" width="160" height="26" as="alternateBounds" />
          </mxGeometry>
        </mxCell>
        <mxCell id="ba8RARe4d2X0Svd5oxOF-59" value="- email : String" style="text;align=left;verticalAlign=top;spacingLeft=4;spacingRight=4;overflow=hidden;rotatable=0;points=[[0,0.5],[1,0.5]];portConstraint=eastwest;" vertex="1" parent="ba8RARe4d2X0Svd5oxOF-58">
          <mxGeometry y="26" width="253" height="19" as="geometry" />
        </mxCell>
        <mxCell id="ba8RARe4d2X0Svd5oxOF-69" value="- cellPhone : String" style="text;align=left;verticalAlign=top;spacingLeft=4;spacingRight=4;overflow=hidden;rotatable=0;points=[[0,0.5],[1,0.5]];portConstraint=eastwest;" vertex="1" parent="ba8RARe4d2X0Svd5oxOF-58">
          <mxGeometry y="45" width="253" height="19" as="geometry" />
        </mxCell>
        <mxCell id="ba8RARe4d2X0Svd5oxOF-68" value="- storeName : String" style="text;align=left;verticalAlign=top;spacingLeft=4;spacingRight=4;overflow=hidden;rotatable=0;points=[[0,0.5],[1,0.5]];portConstraint=eastwest;" vertex="1" parent="ba8RARe4d2X0Svd5oxOF-58">
          <mxGeometry y="64" width="253" height="19" as="geometry" />
        </mxCell>
        <mxCell id="ba8RARe4d2X0Svd5oxOF-67" value="- phone : String" style="text;align=left;verticalAlign=top;spacingLeft=4;spacingRight=4;overflow=hidden;rotatable=0;points=[[0,0.5],[1,0.5]];portConstraint=eastwest;" vertex="1" parent="ba8RARe4d2X0Svd5oxOF-58">
          <mxGeometry y="83" width="253" height="19" as="geometry" />
        </mxCell>
        <mxCell id="ba8RARe4d2X0Svd5oxOF-66" value="- clientType: String" style="text;align=left;verticalAlign=top;spacingLeft=4;spacingRight=4;overflow=hidden;rotatable=0;points=[[0,0.5],[1,0.5]];portConstraint=eastwest;" vertex="1" parent="ba8RARe4d2X0Svd5oxOF-58">
          <mxGeometry y="102" width="253" height="19" as="geometry" />
        </mxCell>
        <mxCell id="ba8RARe4d2X0Svd5oxOF-65" value="- howDiscovery : String" style="text;align=left;verticalAlign=top;spacingLeft=4;spacingRight=4;overflow=hidden;rotatable=0;points=[[0,0.5],[1,0.5]];portConstraint=eastwest;" vertex="1" parent="ba8RARe4d2X0Svd5oxOF-58">
          <mxGeometry y="121" width="253" height="19" as="geometry" />
        </mxCell>
        <mxCell id="ba8RARe4d2X0Svd5oxOF-60" value="" style="line;html=1;strokeWidth=1;align=left;verticalAlign=middle;spacingTop=-1;spacingLeft=3;spacingRight=3;rotatable=0;labelPosition=right;points=[];portConstraint=eastwest;" vertex="1" parent="ba8RARe4d2X0Svd5oxOF-58">
          <mxGeometry y="140" width="253" height="5.846153846153846" as="geometry" />
        </mxCell>
        <mxCell id="ba8RARe4d2X0Svd5oxOF-70" value="&lt;div style=&quot;background-color:#f2f3f7;color:#262626&quot;&gt;&lt;pre style=&quot;font-family:&#39;JetBrains Mono&#39;,monospace;font-size:8.3pt;&quot;&gt;&lt;span style=&quot;color:#000000;&quot;&gt;application.port.out.model.response&lt;/span&gt;&lt;/pre&gt;&lt;/div&gt;" style="shape=folder;fontStyle=1;tabWidth=110;tabHeight=30;tabPosition=left;html=1;boundedLbl=1;labelInHeader=1;container=1;collapsible=0;recursiveResize=0;whiteSpace=wrap;fillColor=none;" vertex="1" parent="WIyWlLk6GJQsqaUBKTNV-1">
          <mxGeometry x="160" y="330" width="270" height="280" as="geometry" />
        </mxCell>
        <mxCell id="ba8RARe4d2X0Svd5oxOF-72" value="SignUpOutDTO" style="swimlane;fontStyle=2;align=center;verticalAlign=top;childLayout=stackLayout;horizontal=1;startSize=26;horizontalStack=0;resizeParent=1;resizeLast=0;collapsible=1;marginBottom=0;rounded=0;shadow=0;strokeWidth=1;" vertex="1" parent="ba8RARe4d2X0Svd5oxOF-70">
          <mxGeometry x="40" y="48.9" width="180" height="202.85" as="geometry">
            <mxRectangle x="230" y="140" width="160" height="26" as="alternateBounds" />
          </mxGeometry>
        </mxCell>
        <mxCell id="ba8RARe4d2X0Svd5oxOF-73" value="-code : String" style="text;align=left;verticalAlign=top;spacingLeft=4;spacingRight=4;overflow=hidden;rotatable=0;points=[[0,0.5],[1,0.5]];portConstraint=eastwest;" vertex="1" parent="ba8RARe4d2X0Svd5oxOF-72">
          <mxGeometry y="26" width="180" height="19" as="geometry" />
        </mxCell>
        <mxCell id="ba8RARe4d2X0Svd5oxOF-74" value="- message : String" style="text;align=left;verticalAlign=top;spacingLeft=4;spacingRight=4;overflow=hidden;rotatable=0;points=[[0,0.5],[1,0.5]];portConstraint=eastwest;" vertex="1" parent="ba8RARe4d2X0Svd5oxOF-72">
          <mxGeometry y="45" width="180" height="19" as="geometry" />
        </mxCell>
        <mxCell id="ba8RARe4d2X0Svd5oxOF-79" value="" style="line;html=1;strokeWidth=1;align=left;verticalAlign=middle;spacingTop=-1;spacingLeft=3;spacingRight=3;rotatable=0;labelPosition=right;points=[];portConstraint=eastwest;" vertex="1" parent="ba8RARe4d2X0Svd5oxOF-72">
          <mxGeometry y="64" width="180" height="5.846153846153846" as="geometry" />
        </mxCell>
      </root>
    </mxGraphModel>
  </diagram>
</mxfile>
